<svg width="20" height="20" viewBox="0 0 20 20" fill="none" xmlns="http://www.w3.org/2000/svg">
<path fill-rule="evenodd" clip-rule="evenodd" d="M0 5C0 2.23858 2.23858 0 5 0H15C17.7614 0 20 2.23858 20 5V15C20 17.7614 17.7614 20 15 20H5C2.23858 20 0 17.7614 0 15V5ZM5 2C3.34315 2 2 3.34315 2 5V15C2 16.6569 3.34315 18 5 18H15C16.6569 18 18 16.6569 18 15V5C18 3.34315 16.6569 2 15 2H5ZM6.29289 8.29289C6.68342 7.90237 7.31658 7.90237 7.70711 8.29289L10 10.5858L12.2929 8.29289C12.6834 7.90237 13.3166 7.90237 13.7071 8.29289C14.0976 8.68342 14.0976 9.31658 13.7071 9.70711L10.7071 12.7071C10.5196 12.8946 10.2652 13 10 13C9.73478 13 9.48043 12.8946 9.29289 12.7071L6.29289 9.70711C5.90237 9.31658 5.90237 8.68342 6.29289 8.29289Z" fill="#111111"/>
</svg>
